<svg xmlns="http://www.w3.org/2000/svg" xmlns:xlink="http://www.w3.org/1999/xlink" viewBox="0 0 9.16 18.22"><defs><style>.cls-1{isolation:isolate;}.cls-2{fill:url(#Degradado_sin_nombre_25);}.cls-3,.cls-5{mix-blend-mode:soft-light;}.cls-3{fill:url(#Degradado_sin_nombre_51);}.cls-4{fill:url(#Degradado_sin_nombre_25-2);}.cls-5{fill:url(#Degradado_sin_nombre_51-2);}.cls-6{fill:url(#Degradado_sin_nombre_117);}.cls-7{fill:url(#Degradado_sin_nombre_74);}</style><linearGradient id="Degradado_sin_nombre_25" x1="50.46" y1="43.68" x2="44.91" y2="59.3" gradientUnits="userSpaceOnUse"><stop offset="0" stop-color="#ffd95a"/><stop offset="0.39" stop-color="#ff60d0"/><stop offset="0.71" stop-color="#7860ff"/><stop offset="1" stop-color="#78f6ff"/></linearGradient><linearGradient id="Degradado_sin_nombre_51" x1="46.81" y1="49.68" x2="50.58" y2="43.93" gradientUnits="userSpaceOnUse"><stop offset="0" stop-color="#fff" stop-opacity="0"/><stop offset="1" stop-color="#fff"/></linearGradient><linearGradient id="Degradado_sin_nombre_25-2" x1="52.49" y1="44.4" x2="46.94" y2="60.02" xlink:href="#Degradado_sin_nombre_25"/><linearGradient id="Degradado_sin_nombre_51-2" x1="47.66" y1="56.59" x2="49.49" y2="51.84" xlink:href="#Degradado_sin_nombre_51"/><linearGradient id="Degradado_sin_nombre_117" x1="6.6" y1="0.6" x2="1.05" y2="16.23" gradientUnits="userSpaceOnUse"><stop offset="0" stop-color="#ffd95a"/><stop offset="0.31" stop-color="#4e2a55"/><stop offset="0.34" stop-color="#582d5c"/><stop offset="0.39" stop-color="#72356e"/><stop offset="0.45" stop-color="#9d428c"/><stop offset="0.53" stop-color="#d854b5"/><stop offset="0.57" stop-color="#ff60d0"/><stop offset="0.78" stop-color="#7860ff"/><stop offset="1" stop-color="#78f6ff"/></linearGradient><linearGradient id="Degradado_sin_nombre_74" x1="53.97" y1="44.92" x2="48.42" y2="60.55" gradientUnits="userSpaceOnUse"><stop offset="0" stop-color="#ffd95a"/><stop offset="0.45" stop-color="#352752"/><stop offset="0.5" stop-color="#382a5a"/><stop offset="0.57" stop-color="#413171"/><stop offset="0.66" stop-color="#4f3d96"/><stop offset="0.77" stop-color="#634ec9"/><stop offset="0.87" stop-color="#7860ff"/><stop offset="1" stop-color="#78f6ff"/></linearGradient></defs><g class="cls-1"><g id="OBJECTS"><path class="cls-2" d="M53.79,44.27l-8,8h0a3.15,3.15,0,0,1,0-4.44l3.6-3.59a3.13,3.13,0,0,1,4.44,0Z" transform="translate(-44.63 -43.35)"/><path class="cls-3" d="M46.86,48.13l3.58-3.58a3,3,0,0,1,1.85-.89,2.75,2.75,0,0,0-2.41.76l-3.15,3.15A2.76,2.76,0,0,0,46,50,3.14,3.14,0,0,1,46.86,48.13Z" transform="translate(-44.63 -43.35)"/><path class="cls-4" d="M51.37,55.05l-5.82,5.81h0a3.13,3.13,0,0,1,0-4.44l5.82-5.82h0A3.16,3.16,0,0,1,51.37,55.05Z" transform="translate(-44.63 -43.35)"/><path class="cls-5" d="M46.33,56.62l5.09-5.09a.65.65,0,0,0-.18-.3h0l-5,5a2.68,2.68,0,0,0-.79,2A3.3,3.3,0,0,1,46.33,56.62Z" transform="translate(-44.63 -43.35)"/><polygon class="cls-6" points="6.21 7.1 4.26 6.51 1.66 9.11 3.63 9.68 6.21 7.1"/><path class="cls-7" d="M52.73,52.29a3.12,3.12,0,0,1,0,.54,3.56,3.56,0,0,1-1.06,2.56l-5.79,5.79a3.9,3.9,0,0,0,.33.38h0l5.82-5.81A3.16,3.16,0,0,0,52.73,52.29Z" transform="translate(-44.63 -43.35)"/></g></g></svg>